<svg width="532" height="491" viewBox="0 0 532 491" fill="none" xmlns="http://www.w3.org/2000/svg">
<g clip-path="url(#clip0_14_25)">
<path d="M217.478 107.7C220.53 99.0546 231.874 97.0548 237.699 104.135L268.229 141.246C272.007 145.838 277.597 148.559 283.544 148.704L331.633 149.874C340.814 150.097 346.206 160.247 341.266 167.963L315.347 208.441C313.762 210.916 312.729 213.703 312.319 216.613C311.908 219.522 312.131 222.486 312.971 225.301L326.696 271.337C329.313 280.108 321.323 288.392 312.431 286.081L265.88 273.989C263.035 273.249 260.064 273.131 257.169 273.641C254.274 274.151 251.522 275.278 249.102 276.946L209.497 304.228C201.93 309.439 191.59 304.388 191.046 295.251L188.197 247.298C187.845 241.363 184.924 235.877 180.197 232.268L141.992 203.093C134.71 197.532 136.306 186.151 144.856 182.801L189.645 165.258C195.184 163.088 199.506 158.62 201.485 153.013L217.478 107.7Z" fill="#FFAFF3"/>
<path d="M225.831 95.8834C220.405 96.84 215.446 100.442 213.393 106.258L197.397 151.57C195.838 155.988 192.436 159.505 188.069 161.216L143.279 178.761C131.785 183.263 129.563 199.068 139.361 206.55L177.566 235.722C179.405 237.125 180.92 238.909 182.007 240.952C183.094 242.994 183.728 245.247 183.865 247.556L186.712 295.508C187.443 307.81 201.795 314.809 211.966 307.805L211.966 307.804L251.575 280.522V280.521C253.481 279.207 255.65 278.318 257.93 277.916C260.212 277.514 262.553 277.608 264.794 278.191L311.346 290.281C323.298 293.387 334.392 281.902 330.869 270.09V270.091L317.145 224.056C316.483 221.839 316.308 219.506 316.631 217.214C316.954 214.924 317.767 212.73 319.017 210.782V210.781L344.938 170.301L344.937 170.301C351.586 159.919 344.092 145.827 331.752 145.527L283.661 144.359C278.973 144.246 274.573 142.104 271.597 138.486L241.067 101.376C237.148 96.6126 231.256 94.9244 225.83 95.8811M227.29 104.163C229.756 103.728 232.448 104.58 234.355 106.896L264.884 144.005C269.462 149.571 276.245 152.871 283.449 153.046L331.54 154.214C337.562 154.36 340.851 160.567 337.617 165.616L311.696 206.096C307.808 212.165 306.757 219.633 308.814 226.538L322.54 272.572C324.249 278.305 319.362 283.385 313.53 281.871L266.979 269.78C260.003 267.967 252.576 269.277 246.641 273.366L207.033 300.648C202.071 304.066 195.741 300.963 195.386 294.992L192.539 247.04C192.112 239.846 188.568 233.19 182.839 228.815L144.635 199.643C139.869 196.005 140.838 189.047 146.447 186.85L191.237 169.305C197.948 166.676 203.192 161.256 205.591 154.46V154.46L221.587 109.148C222.585 106.319 224.824 104.598 227.29 104.163" fill="#151515"/>
<path d="M211.895 217.938C216.538 217.119 219.638 212.693 218.819 208.051C218.001 203.409 213.574 200.31 208.931 201.129C204.288 201.948 201.188 206.374 202.006 211.016C202.825 215.657 207.252 218.757 211.895 217.938Z" fill="#151515"/>
<path d="M280.672 205.813C285.314 204.995 288.415 200.568 287.596 195.926C286.778 191.285 282.35 188.186 277.707 189.004C273.065 189.823 269.964 194.249 270.782 198.891C271.602 203.533 276.029 206.632 280.672 205.813Z" fill="#151515"/>
<path d="M239.213 216.036C238.681 216.241 238.194 216.55 237.78 216.943C237.368 217.336 237.035 217.808 236.805 218.329C236.573 218.851 236.447 219.413 236.433 219.983C236.419 220.553 236.518 221.122 236.723 221.654C237.26 223.041 238.064 224.309 239.091 225.387C240.117 226.465 241.346 227.328 242.707 227.93L242.708 227.931C244.068 228.533 245.532 228.861 247.019 228.896H247.02H247.023C248.509 228.931 249.987 228.674 251.375 228.138H251.376C252.763 227.603 254.032 226.799 255.109 225.773H255.11V225.772C256.186 224.746 257.05 223.518 257.652 222.159C258.256 220.798 258.584 219.33 258.619 217.842C258.646 216.691 258.215 215.575 257.419 214.741C256.623 213.908 255.529 213.425 254.376 213.398C253.806 213.383 253.239 213.483 252.707 213.689C252.174 213.895 251.688 214.204 251.275 214.598C250.862 214.991 250.531 215.462 250.3 215.985C250.07 216.506 249.944 217.069 249.931 217.639C249.922 217.984 249.846 218.323 249.706 218.638V218.64L249.705 218.642C249.565 218.958 249.364 219.244 249.114 219.482C248.863 219.721 248.569 219.908 248.246 220.032L248.244 220.033C247.92 220.158 247.576 220.218 247.229 220.21C246.883 220.202 246.542 220.124 246.226 219.984H246.224L246.223 219.983C245.907 219.843 245.622 219.643 245.383 219.393V219.392C245.144 219.141 244.957 218.847 244.832 218.523C244.627 217.991 244.318 217.505 243.925 217.092C243.531 216.679 243.06 216.347 242.538 216.116C242.016 215.885 241.454 215.759 240.883 215.745C240.313 215.731 239.746 215.83 239.213 216.036Z" fill="#151515"/>
<path d="M355.45 303.747C355.6 303.87 355.754 303.988 355.91 304.103C357.738 305.442 359.435 305.806 360.927 305.626C362.916 305.388 365.031 304.127 366.858 300.883C368.686 297.639 369.999 292.442 369.695 285.33C367.545 234.973 365.626 186.554 363.177 149.971C362.585 141.127 361.96 132.991 361.297 125.677C347.18 134.186 332.003 135.928 318.084 131.487C319.152 138.593 320.436 146.43 321.911 154.922C328.187 191.046 337.778 238.546 347.604 287.981C348.991 294.963 351.497 299.702 354.04 302.422C354.479 302.895 354.95 303.338 355.45 303.748L355.45 303.747ZM355.45 303.747C355.6 303.87 355.754 303.988 355.91 304.103C357.738 305.442 359.435 305.806 360.927 305.626C362.916 305.388 365.031 304.127 366.858 300.883C368.686 297.639 369.999 292.442 369.695 285.33C367.545 234.973 365.626 186.554 363.177 149.971C362.585 141.127 361.96 132.991 361.297 125.677C347.18 134.186 332.003 135.928 318.084 131.487M355.45 303.747C355.6 303.87 355.754 303.988 355.91 304.103C357.738 305.442 359.435 305.806 360.927 305.626C362.916 305.388 365.031 304.127 366.858 300.883C368.686 297.639 369.999 292.442 369.695 285.33C367.545 234.973 365.626 186.554 363.177 149.971C362.585 141.127 361.96 132.991 361.297 125.677C347.18 134.186 332.003 135.928 318.084 131.487C319.152 138.593 320.436 146.43 321.911 154.922C328.187 191.046 337.778 238.546 347.604 287.981C348.991 294.963 351.497 299.702 354.04 302.422" fill="#151515"/>
<path d="M360.333 115.971C345.639 126.566 330.55 127.957 316.702 121.762C316.158 117.678 315.704 113.895 315.373 110.533C314.929 106.023 314.693 102.203 314.665 99.2104C320.547 103.164 328.028 104.509 335.228 103.636C343.106 102.68 350.974 99.1321 356.79 93.1185C357.554 96.1458 358.315 100.272 359.027 105.294C359.48 108.49 359.913 112.087 360.333 115.971Z" fill="#151515"/>
<path d="M334.182 95.0028C328.305 95.7156 322.769 94.5257 318.778 91.4744C317.436 90.4526 316.276 89.2119 315.347 87.8044C308.529 77.4663 306.485 69.9501 306.68 63.8483C306.875 57.7465 309.331 52.635 312.853 47.0945C317.769 39.3629 324.855 30.8761 327.84 19.3494C331.193 26.4097 332.747 34.8399 332.961 42.8808C338.26 34.7902 337.774 18.0062 329.769 9.25286C345.093 14.9231 354.897 24.908 359.461 36.872C364.624 50.4071 363.122 66.7187 354.002 82.4969C349.887 89.6167 342.017 94.0529 334.182 95.0028Z" fill="#FFAFF3"/>
<path d="M101.547 467H79.0859C78.4349 467 78.1094 466.674 78.1094 466.023L78.5 328.621C78.5 328.1 78.7604 327.84 79.2812 327.84H117.758C129.997 327.84 139.665 331.583 146.762 339.07C153.923 346.492 157.504 356.616 157.504 369.441C157.504 378.816 155.648 386.987 151.938 393.953C148.161 400.854 143.279 406.193 137.289 409.969C131.299 413.745 124.789 415.633 117.758 415.633H102.523V466.023C102.523 466.674 102.198 467 101.547 467ZM117.758 351.57L102.523 351.766V391.414H117.758C121.99 391.414 125.668 389.396 128.793 385.359C131.918 381.258 133.48 375.952 133.48 369.441C133.48 364.233 132.081 359.969 129.281 356.648C126.482 353.263 122.641 351.57 117.758 351.57ZM162.777 466.023L187.582 328.621C187.712 328.1 188.038 327.84 188.559 327.84H217.562C218.083 327.84 218.409 328.1 218.539 328.621L242.367 466.023C242.432 466.674 242.172 467 241.586 467H219.418C218.767 467 218.409 466.674 218.344 466.023L216.195 451.375H188.949L186.801 466.023C186.736 466.674 186.41 467 185.824 467H163.559C163.038 467 162.777 466.674 162.777 466.023ZM201.938 373.836L192.953 429.988H212.191L203.988 373.836L202.816 366.414L201.938 373.836ZM278.5 467H255.844C255.193 467 254.867 466.674 254.867 466.023L255.062 328.621C255.062 328.1 255.323 327.84 255.844 327.84H278.305C278.826 327.84 279.086 328.1 279.086 328.621L279.281 466.023C279.281 466.674 279.021 467 278.5 467ZM318.637 467H298.617C297.576 467 297.055 466.544 297.055 465.633L296.859 329.402C296.859 328.361 297.38 327.84 298.422 327.84H316.488L350.277 406.648L349.301 329.402C349.301 328.361 349.887 327.84 351.059 327.84H370.883C371.664 327.84 372.055 328.361 372.055 329.402L372.25 465.828C372.25 466.609 371.924 467 371.273 467H353.695L319.027 393.367L320.492 465.438C320.492 466.479 319.874 467 318.637 467ZM432.309 467H409.75C409.164 467 408.871 466.674 408.871 466.023V351.961H382.895C382.243 351.961 381.918 351.635 381.918 350.984L382.113 328.621C382.113 328.1 382.374 327.84 382.895 327.84H458.871C459.587 327.84 459.945 328.1 459.945 328.621V350.984C459.945 351.635 459.685 351.961 459.164 351.961H432.895L433.09 466.023C433.09 466.674 432.829 467 432.309 467Z" fill="#151515"/>
</g>
<defs>
<clipPath id="clip0_14_25">
<rect width="532" height="491" fill="white"/>
</clipPath>
</defs>
</svg>
