<svg width="661" height="571" viewBox="0 0 661 571" fill="none" xmlns="http://www.w3.org/2000/svg">
<path d="M259.478 153.7C262.53 145.055 273.874 143.055 279.699 150.135L310.229 187.246C314.007 191.838 319.597 194.559 325.544 194.704L373.633 195.874C382.814 196.097 388.206 206.247 383.266 213.963L357.347 254.441C355.762 256.916 354.729 259.703 354.319 262.613C353.908 265.522 354.131 268.486 354.971 271.301L368.696 317.337C371.313 326.108 363.323 334.392 354.431 332.081L307.88 319.989C305.035 319.249 302.064 319.131 299.169 319.641C296.274 320.151 293.522 321.278 291.102 322.946L251.497 350.228C243.93 355.439 233.59 350.388 233.046 341.251L230.197 293.298C229.845 287.363 226.924 281.877 222.197 278.268L183.992 249.093C176.71 243.532 178.306 232.151 186.856 228.801L231.645 211.258C237.184 209.088 241.506 204.62 243.485 199.013L259.478 153.7Z" fill="#FFAFF3"/>
<path d="M267.831 141.883C262.405 142.84 257.446 146.442 255.393 152.258L239.397 197.57C237.838 201.988 234.436 205.505 230.069 207.216L185.279 224.761C173.785 229.263 171.563 245.068 181.361 252.55L219.566 281.722C221.405 283.125 222.92 284.909 224.007 286.952C225.094 288.994 225.728 291.247 225.865 293.556L228.712 341.508C229.443 353.81 243.795 360.809 253.966 353.805L253.966 353.804L293.575 326.522V326.521C295.481 325.207 297.65 324.318 299.93 323.916C302.212 323.514 304.553 323.608 306.794 324.191L353.346 336.281C365.298 339.387 376.392 327.902 372.869 316.09V316.091L359.145 270.056C358.483 267.839 358.308 265.506 358.631 263.214C358.954 260.924 359.767 258.73 361.017 256.782V256.781L386.938 216.301L386.937 216.301C393.586 205.919 386.092 191.827 373.752 191.527L325.661 190.359C320.973 190.246 316.573 188.104 313.597 184.486L283.067 147.376C279.148 142.613 273.256 140.924 267.83 141.881M269.29 150.163C271.756 149.728 274.448 150.58 276.355 152.896L306.884 190.005C311.462 195.571 318.245 198.871 325.449 199.046L373.54 200.214C379.562 200.36 382.851 206.567 379.617 211.616L353.696 252.096C349.808 258.165 348.757 265.633 350.814 272.538L364.54 318.572C366.249 324.305 361.362 329.385 355.53 327.871L308.979 315.78C302.003 313.967 294.576 315.277 288.641 319.366L249.033 346.648C244.071 350.066 237.741 346.963 237.386 340.992L234.539 293.04C234.112 285.846 230.568 279.19 224.839 274.815L186.635 245.643C181.869 242.005 182.838 235.047 188.447 232.85L233.237 215.305C239.948 212.676 245.192 207.256 247.591 200.46V200.46L263.587 155.148C264.585 152.319 266.824 150.598 269.29 150.163" fill="#151515"/>
<path d="M253.895 263.938C258.538 263.119 261.638 258.693 260.819 254.051C260.001 249.409 255.574 246.31 250.931 247.129C246.288 247.948 243.188 252.374 244.006 257.016C244.825 261.657 249.252 264.757 253.895 263.938Z" fill="#151515"/>
<path d="M322.672 251.813C327.314 250.995 330.415 246.568 329.596 241.926C328.778 237.285 324.35 234.186 319.707 235.004C315.065 235.823 311.964 240.249 312.782 244.891C313.602 249.533 318.029 252.632 322.672 251.813Z" fill="#151515"/>
<path d="M281.213 262.036C280.681 262.241 280.194 262.55 279.78 262.943C279.368 263.336 279.035 263.808 278.805 264.329C278.573 264.851 278.447 265.413 278.433 265.983C278.419 266.553 278.518 267.122 278.723 267.654C279.26 269.041 280.064 270.309 281.091 271.387C282.117 272.465 283.346 273.328 284.707 273.93L284.708 273.931C286.068 274.533 287.532 274.861 289.019 274.896H289.02H289.023C290.509 274.931 291.987 274.674 293.375 274.138H293.376C294.763 273.603 296.032 272.799 297.109 271.773H297.11V271.772C298.186 270.746 299.05 269.518 299.652 268.159C300.256 266.798 300.584 265.33 300.619 263.842C300.646 262.691 300.215 261.575 299.419 260.741C298.623 259.908 297.529 259.425 296.376 259.398C295.806 259.383 295.239 259.483 294.707 259.689C294.174 259.895 293.688 260.204 293.275 260.598C292.862 260.991 292.531 261.462 292.3 261.985C292.07 262.506 291.944 263.069 291.931 263.639C291.922 263.984 291.846 264.323 291.706 264.638V264.64L291.705 264.642C291.565 264.958 291.364 265.244 291.114 265.482C290.863 265.721 290.569 265.908 290.246 266.032L290.244 266.033C289.92 266.158 289.576 266.218 289.229 266.21C288.883 266.202 288.542 266.124 288.226 265.984H288.224L288.223 265.983C287.907 265.843 287.622 265.643 287.383 265.393V265.392C287.144 265.141 286.957 264.847 286.832 264.523C286.627 263.991 286.318 263.505 285.925 263.092C285.531 262.679 285.06 262.347 284.538 262.116C284.016 261.885 283.454 261.759 282.883 261.745C282.313 261.731 281.746 261.83 281.213 262.036Z" fill="#151515"/>
<g clip-path="url(#clip0_14_25)">
<path d="M395.896 343.288C396.049 343.407 396.206 343.522 396.365 343.633C398.223 344.93 399.927 345.254 401.415 345.041C403.398 344.757 405.483 343.447 407.236 340.163C408.988 336.878 410.182 331.652 409.715 324.549C406.412 274.254 403.383 225.892 400.095 189.374C399.301 180.546 398.49 172.427 397.659 165.13C383.741 173.961 368.607 176.05 354.591 171.929C355.821 179.009 357.284 186.814 358.954 195.271C366.056 231.241 376.734 278.509 387.691 327.706C389.238 334.654 391.851 339.335 394.456 341.995C394.906 342.458 395.387 342.89 395.896 343.288L395.896 343.288ZM352.986 162.239C366.973 168.114 382.026 166.378 396.473 155.449C395.964 151.575 395.448 147.99 394.922 144.805C394.096 139.801 393.241 135.693 392.407 132.684C386.73 138.829 378.945 142.557 371.091 143.692C363.914 144.731 356.404 143.558 350.433 139.74C350.529 142.731 350.852 146.544 351.4 151.043C351.808 154.396 352.349 158.168 352.986 162.239ZM354.367 131.911C358.427 134.87 363.989 135.933 369.848 135.086C377.659 133.957 385.426 129.341 389.376 122.129C398.132 106.146 399.259 89.8039 393.787 76.3907C388.951 64.5345 378.92 54.7769 363.471 49.4595C371.674 58.0271 372.544 74.7955 367.432 83.0055C367.035 74.9716 365.287 66.5793 361.773 59.5977C359.053 71.1898 352.163 79.8368 347.427 87.679C344.032 93.2988 341.694 98.4653 341.639 104.57C341.584 110.675 343.799 118.142 350.853 128.321C351.814 129.707 353.002 130.921 354.367 131.911Z" fill="#151515"/>
</g>
<mask id="mask0_14_25" style="mask-type:alpha" maskUnits="userSpaceOnUse" x="214" y="23" width="348" height="348">
<g clip-path="url(#clip1_14_25)">
<path d="M395.896 343.288C396.049 343.407 396.206 343.522 396.365 343.633C398.223 344.93 399.927 345.254 401.415 345.041C403.398 344.757 405.483 343.447 407.236 340.163C408.988 336.878 410.182 331.652 409.715 324.549C406.412 274.254 403.383 225.892 400.095 189.374C399.301 180.546 398.49 172.427 397.659 165.13C383.741 173.961 368.607 176.05 354.591 171.929C355.821 179.009 357.284 186.814 358.954 195.27C366.056 231.241 376.734 278.509 387.691 327.706C389.238 334.654 391.851 339.335 394.456 341.995C394.906 342.458 395.387 342.89 395.896 343.288L395.896 343.288ZM352.986 162.238C366.973 168.114 382.026 166.378 396.473 155.449C395.964 151.575 395.448 147.989 394.922 144.805C394.096 139.8 393.241 135.693 392.407 132.684C386.73 138.829 378.945 142.557 371.091 143.692C363.914 144.73 356.404 143.558 350.433 139.74C350.529 142.731 350.852 146.544 351.4 151.043C351.808 154.396 352.349 158.168 352.986 162.238ZM354.367 131.911C358.427 134.87 363.989 135.933 369.848 135.086C377.659 133.956 385.426 129.341 389.376 122.129C398.132 106.145 399.259 89.8038 393.787 76.3906C388.951 64.5344 378.92 54.7768 363.471 49.4594C371.674 58.0269 372.544 74.7954 367.432 83.0054C367.035 74.9715 365.287 66.5791 361.773 59.5976C359.053 71.1897 352.163 79.8367 347.427 87.6789C344.032 93.2987 341.694 98.4652 341.639 104.57C341.584 110.675 343.799 118.142 350.853 128.321C351.814 129.707 353.002 130.921 354.367 131.911Z" fill="#151515"/>
</g>
</mask>
<g mask="url(#mask0_14_25)">
<path d="M332.03 98.5102L357.224 45.4417L360.441 45.4417L387.243 51.8743L409.221 75.4604L420.478 98.5102L396.356 125.313L373.306 138.714L357.224 138.714L341.143 133.889L332.03 98.5102Z" fill="#FFAFF3"/>
</g>
<path d="M143.547 513H121.086C120.435 513 120.109 512.674 120.109 512.023L120.5 374.621C120.5 374.1 120.76 373.84 121.281 373.84H159.758C171.997 373.84 181.665 377.583 188.762 385.07C195.923 392.492 199.504 402.616 199.504 415.441C199.504 424.816 197.648 432.987 193.938 439.953C190.161 446.854 185.279 452.193 179.289 455.969C173.299 459.745 166.789 461.633 159.758 461.633H144.523V512.023C144.523 512.674 144.198 513 143.547 513ZM159.758 397.57L144.523 397.766V437.414H159.758C163.99 437.414 167.668 435.396 170.793 431.359C173.918 427.258 175.48 421.952 175.48 415.441C175.48 410.233 174.081 405.969 171.281 402.648C168.482 399.263 164.641 397.57 159.758 397.57ZM204.777 512.023L229.582 374.621C229.712 374.1 230.038 373.84 230.559 373.84H259.562C260.083 373.84 260.409 374.1 260.539 374.621L284.367 512.023C284.432 512.674 284.172 513 283.586 513H261.418C260.767 513 260.409 512.674 260.344 512.023L258.195 497.375H230.949L228.801 512.023C228.736 512.674 228.41 513 227.824 513H205.559C205.038 513 204.777 512.674 204.777 512.023ZM243.938 419.836L234.953 475.988H254.191L245.988 419.836L244.816 412.414L243.938 419.836ZM320.5 513H297.844C297.193 513 296.867 512.674 296.867 512.023L297.062 374.621C297.062 374.1 297.323 373.84 297.844 373.84H320.305C320.826 373.84 321.086 374.1 321.086 374.621L321.281 512.023C321.281 512.674 321.021 513 320.5 513ZM360.637 513H340.617C339.576 513 339.055 512.544 339.055 511.633L338.859 375.402C338.859 374.361 339.38 373.84 340.422 373.84H358.488L392.277 452.648L391.301 375.402C391.301 374.361 391.887 373.84 393.059 373.84H412.883C413.664 373.84 414.055 374.361 414.055 375.402L414.25 511.828C414.25 512.609 413.924 513 413.273 513H395.695L361.027 439.367L362.492 511.438C362.492 512.479 361.874 513 360.637 513ZM474.309 513H451.75C451.164 513 450.871 512.674 450.871 512.023V397.961H424.895C424.243 397.961 423.918 397.635 423.918 396.984L424.113 374.621C424.113 374.1 424.374 373.84 424.895 373.84H500.871C501.587 373.84 501.945 374.1 501.945 374.621V396.984C501.945 397.635 501.685 397.961 501.164 397.961H474.895L475.09 512.023C475.09 512.674 474.829 513 474.309 513Z" fill="#151515"/>
<defs>
<clipPath id="clip0_14_25">
<rect width="247.364" height="247.364" fill="white" transform="translate(412.758 370.286) rotate(-143.157)"/>
</clipPath>
<clipPath id="clip1_14_25">
<rect width="247.364" height="247.364" fill="white" transform="translate(412.758 370.286) rotate(-143.157)"/>
</clipPath>
</defs>
</svg>
